# xmcd CD database file
# Copyright (C) 1997 Ti Kan
# 
# Track frame offsets:
#     150
#     4132
#     18845
#     30197
#     45020
#     56750
#     69035
#     83147
#     95167
#     112910
#     123080
#     138177
#     150705
#     166770
#     181092
#     196065
#     207637
#     216975
#     235180
# 
# Disc length: 3294 seconds
# 
# Revision: 1
# Processed by: cddbd v1.4b41PL1 Copyright (c) Steve Scherf et al.
# Submitted via: DiscPlay 4.0.3
# 
DISCID=e30cdc13
DTITLE=Banjo Dan And The Mid-Nite Plowboys - Banjo Dan And The Mid-Nite Plow
DTITLE=boys
DYEAR=1900
DGENRE=
TTITLE0=Katy Hill
TTITLE1=High On The Mountain
TTITLE2=Old Devils Dream
TTITLE3=When We're Gone, Long Gone
TTITLE4=Mighty Dark To Travel
TTITLE5=Some Broken Hearts Never Mend
TTITLE6=Yukon Jack
TTITLE7=Montana Cowboy
TTITLE8=So Far Alone
TTITLE9=Hey Hey Hey
TTITLE10=Duty Boxcar Wall
TTITLE11=Little Cabin In The Snow
TTITLE12=Karelia
TTITLE13=Crossing The Caucasus
TTITLE14=Up On The Mountain
TTITLE15=Shine Hallelujah
TTITLE16=Two O'Clock
TTITLE17=Night Rider's Lament
TTITLE18=Say, Won't You Be Mine
EXTD=
EXTT0=
EXTT1=
EXTT2=
EXTT3=
EXTT4=
EXTT5=
EXTT6=
EXTT7=
EXTT8=
EXTT9=
EXTT10=
EXTT11=
EXTT12=
EXTT13=
EXTT14=
EXTT15=
EXTT16=
EXTT17=
EXTT18=
PLAYORDER=
